<svg xmlns="http://www.w3.org/2000/svg" viewBox="0 0 201.01 147.02"><defs><style>.cls-1{fill:#fff400;}.cls-2{fill:#ffe900;}.cls-3{fill:#1d1d1b;}.cls-4{fill:#1d1c00;}</style></defs><g id="Capa_2" data-name="Capa 2"><g id="Capa_1-2" data-name="Capa 1"><path class="cls-1" d="M166.89,3.84c-42,0-84,.5-126.06.69q-12.88.06-25.77.07H8.42c-3,0-2.43,14-2.38,15.62a59,59,0,0,0,1.06,11c.2.86.62,4.54,2.05,4.54H20.82q21.93,0,43.85-.14c34.62-2.38,69.33-3.77,104-3.77q6.24,0,12.47.06c.85-4.22.55-11.38.52-12.53a58.19,58.19,0,0,0-1.07-11c-.19-.86-.61-4.54-2-4.54H166.89"/><path class="cls-1" d="M58.09,48.22a3.54,3.54,0,0,0-1.88.53,4.56,4.56,0,0,0-1.46,1.5,7.86,7.86,0,0,0-.93,2.31,13.21,13.21,0,0,0-.32,3,13.84,13.84,0,0,0,.32,3.09A7.88,7.88,0,0,0,54.75,61a4.57,4.57,0,0,0,1.44,1.49,3.42,3.42,0,0,0,1.9.53A3.6,3.6,0,0,0,60,62.47,4.58,4.58,0,0,0,61.52,61a7.76,7.76,0,0,0,1-2.35,12.47,12.47,0,0,0,.35-3,11.89,11.89,0,0,0-.35-3,7.9,7.9,0,0,0-1-2.32A4.68,4.68,0,0,0,60,48.75a3.69,3.69,0,0,0-1.94-.53m61.46,0a3.53,3.53,0,0,0-2.62,1.22,5.94,5.94,0,0,0-1.49,3.1h5a6.34,6.34,0,0,0,1.77-.15c.26-.1.39-.35.39-.74a3.57,3.57,0,0,0-.85-2.47,2.8,2.8,0,0,0-2.17-1M58.09,65.1a10.51,10.51,0,0,1-3.84-.71,9.94,9.94,0,0,1-3.19-2,9.24,9.24,0,0,1-2.16-3,9.4,9.4,0,0,1-.79-3.85,8.89,8.89,0,0,1,3-6.69,10.17,10.17,0,0,1,3.19-1.92,11,11,0,0,1,7.74,0,10.23,10.23,0,0,1,3.22,1.93,9.12,9.12,0,0,1,2.2,2.94,8.65,8.65,0,0,1,.8,3.72,9.2,9.2,0,0,1-.8,3.84,9.44,9.44,0,0,1-2.2,3,10.51,10.51,0,0,1-7.12,2.71M77.75,49.25h.13A8.14,8.14,0,0,1,80.56,47,7.42,7.42,0,0,1,84,46.23a8.83,8.83,0,0,1,3.55.6,6.16,6.16,0,0,1,2.42,2,7.9,7.9,0,0,1,1,2,10.51,10.51,0,0,1,.45,3.45v4.83a21.39,21.39,0,0,0,.08,2.21,2.84,2.84,0,0,0,.38,1.24,1.42,1.42,0,0,0,.87.57,10,10,0,0,0,1.58.2v1.37H83.58V63.38a7.28,7.28,0,0,0,1.63-.19,1.54,1.54,0,0,0,.9-.56,2.52,2.52,0,0,0,.42-1.19,17.9,17.9,0,0,0,.1-2V54.74a17.46,17.46,0,0,0-.21-3,5.19,5.19,0,0,0-.67-1.94,2.58,2.58,0,0,0-1.21-1.06,4.78,4.78,0,0,0-1.89-.33,3,3,0,0,0-1.89.62,5.35,5.35,0,0,0-1.37,1.71,7.86,7.86,0,0,0-.53,1.6,9,9,0,0,0-.22,2v4.73c0,.94,0,1.68.08,2.21a2.84,2.84,0,0,0,.38,1.24,1.44,1.44,0,0,0,.89.57,10.59,10.59,0,0,0,1.63.2v1.37H70.82V63.38a10.3,10.3,0,0,0,1.59-.2,1.68,1.68,0,0,0,.93-.55,2.41,2.41,0,0,0,.43-1.17,15.87,15.87,0,0,0,.1-2.06V55.12c0-1.35,0-2.45-.07-3.28a12.7,12.7,0,0,0-.17-1.7,2.88,2.88,0,0,0-.27-.74,1.13,1.13,0,0,0-.52-.44,3,3,0,0,0-.86-.21c-.34,0-.77,0-1.3,0V47.54l6.62-1.31.45,3M119.28,65.1a10.78,10.78,0,0,1-3.86-.67,8.63,8.63,0,0,1-3-1.89,8.52,8.52,0,0,1-1.93-2.9,9.93,9.93,0,0,1-.68-3.74,10.24,10.24,0,0,1,.72-3.89,8.89,8.89,0,0,1,2-3,9.41,9.41,0,0,1,3.12-2,10.57,10.57,0,0,1,4-.72,7.78,7.78,0,0,1,5.66,2,7.25,7.25,0,0,1,2,5.48c0,.37-.05.59-.17.67a2.17,2.17,0,0,1-1,.12h-11a3.24,3.24,0,0,0-.14,1.14,8.69,8.69,0,0,0,1.46,5.31,4.69,4.69,0,0,0,4,2,6.74,6.74,0,0,0,2.86-.66,10.85,10.85,0,0,0,2.76-1.85l1,1.2a10,10,0,0,1-7.79,3.54m17.59-15.85H137A8.14,8.14,0,0,1,139.69,47a7.42,7.42,0,0,1,3.39-.79,8.83,8.83,0,0,1,3.55.6,6.16,6.16,0,0,1,2.42,2,7.9,7.9,0,0,1,1,2,10.55,10.55,0,0,1,.44,3.45v4.83a20.89,20.89,0,0,0,.09,2.21,2.84,2.84,0,0,0,.38,1.24,1.39,1.39,0,0,0,.87.57,10,10,0,0,0,1.58.2v1.37H142.71V63.38a7.18,7.18,0,0,0,1.62-.19,1.54,1.54,0,0,0,.91-.56,2.42,2.42,0,0,0,.41-1.19,15.55,15.55,0,0,0,.11-2V54.74a17.46,17.46,0,0,0-.21-3,5.37,5.37,0,0,0-.67-1.94,2.63,2.63,0,0,0-1.21-1.06,4.78,4.78,0,0,0-1.89-.33,3,3,0,0,0-1.89.62,5.35,5.35,0,0,0-1.37,1.71,7.86,7.86,0,0,0-.53,1.6,9,9,0,0,0-.22,2v4.73c0,.94,0,1.68.08,2.21a2.71,2.71,0,0,0,.38,1.24,1.41,1.41,0,0,0,.89.57,10.42,10.42,0,0,0,1.63.2v1.37H130V63.38a10.3,10.3,0,0,0,1.59-.2,1.68,1.68,0,0,0,.93-.55,2.52,2.52,0,0,0,.43-1.17,15.87,15.87,0,0,0,.1-2.06V55.12c0-1.35,0-2.45-.07-3.28a12.7,12.7,0,0,0-.17-1.7,2.54,2.54,0,0,0-.28-.74A1.06,1.06,0,0,0,132,49a3,3,0,0,0-.86-.21c-.34,0-.78,0-1.3,0V47.54l6.62-1.31.44,3M96,48.46V46.92a9,9,0,0,0,3.44-1.77,7.66,7.66,0,0,0,2.08-2.73h1.75v4.16h3.94v1.88h-3.94V59a7.07,7.07,0,0,0,.46,3,1.63,1.63,0,0,0,1.56.89,2.2,2.2,0,0,0,2-1.23l.72,1c-.64,1.62-2.15,2.44-4.53,2.44A5.62,5.62,0,0,1,99.78,64a3.79,3.79,0,0,1-1.32-3.09V48.46H96m59.13,0V46.92a9,9,0,0,0,3.44-1.77,7.66,7.66,0,0,0,2.08-2.73h1.75v4.16h3.94v1.88h-3.94V59a7.07,7.07,0,0,0,.46,3,1.63,1.63,0,0,0,1.56.89,2.2,2.2,0,0,0,2-1.23l.72,1c-.65,1.62-2.16,2.44-4.53,2.44a5.62,5.62,0,0,1-3.69-1.1,3.79,3.79,0,0,1-1.32-3.09V48.46h-2.5m26.06-16.53c-.37,1.82-1,3.1-1.87,3.1h-6.75q-12.83,0-25.65.07c-27.41.12-54.81.38-82.21.55Q55.33,36.27,46,37q-6,.47-11.89,1a12.85,12.85,0,0,1,3.83.58,18.59,18.59,0,0,1,3.94,1.89l.65-2.13H44.2L43.52,47H42.15a9.1,9.1,0,0,0-2.8-5,7.37,7.37,0,0,0-5-1.82,7.82,7.82,0,0,0-3.6.81,7.36,7.36,0,0,0-2.65,2.29A10.8,10.8,0,0,0,26.42,47a18.8,18.8,0,0,0-.57,4.82Q25.85,57.1,28,60a7.57,7.57,0,0,0,6.43,2.86A8.66,8.66,0,0,0,40.14,61a10.32,10.32,0,0,0,3.21-5.52h1.5v9.29H43.24L42.76,62a14.06,14.06,0,0,1-9.15,3.06A16.31,16.31,0,0,1,28,64.17a12.31,12.31,0,0,1-4.33-2.62,11.58,11.58,0,0,1-2.76-4.14,14.45,14.45,0,0,1-1-5.42,15.32,15.32,0,0,1,1-5.69A12.75,12.75,0,0,1,28.27,39a15.12,15.12,0,0,1,2.48-.71q-12,1.1-24.06,2.48c-1.09.12-1.46,4.79-1.49,5a88.77,88.77,0,0,0-.48,12.09c0,1.57.16,17,2.4,17h0l.23,0c.3-1.52.77-3.34,1.25-3.37q18.26-1,36.48-1.61,14-.48,27.95-.78c28.82-1.78,57.69-2.67,86.5-3q7.11-.07,14.23-.08c8.4,0,16.79.08,25.19.29h0c2.38,0,2-15.38,2-17.14a86.68,86.68,0,0,0-.81-12.07c-.16-1-.47-4.94-1.63-5q-8.69-.21-17.37-.29"/><path class="cls-2" d="M168.68,31.87c-34.68,0-69.39,1.39-104,3.77,27.4-.17,54.8-.43,82.21-.55Q159.71,35,172.53,35h6.75c.92,0,1.5-1.28,1.87-3.1q-6.24-.06-12.47-.06"/><path class="cls-1" d="M122.93,68.62q-24.9,0-49.85.54C51.14,70.51,29.23,72.39,7.4,74.92c-.21,1-.34,1.94-.36,2-.76,4.27-1.23,8.83-1.57,13.15C5.36,91.57,4.3,103.61,5,107.56q9-.36,18-.82c13.6-.67,27.19-1.42,40.78-2.13,12.46-.66,24.91-1.32,37.35-1.8h0c.24,0,.36,1.19.39,3.15q8.82-.06,17.62-.06,9.68,0,19.33.07,18.2.14,36.36.55h0c1.87,0,3-16.5,3.17-18.55.15-1.88,1.72-18.67-.12-18.71q-27.42-.63-54.9-.64"/><path class="cls-2" d="M73.08,69.16q-14,.3-27.95.78-18.23.63-36.48,1.61c-.48,0-1,1.85-1.25,3.37,21.83-2.53,43.74-4.41,65.68-5.76"/><path class="cls-1" d="M101.47,106c-31.91.23-63.88,1.1-95.88,2.85h0c-.29,0-.49-.46-.62-1.25l-2,.08C1.58,107.7-1,147,.41,147h0c12.44-.48,24.89-1.14,37.35-1.79,13.59-.72,27.19-1.47,40.78-2.14q10-.5,19.95-.9c1.17-.05,3.13-26.9,3-36.23"/><path class="cls-2" d="M101.08,102.81h0c-12.44.48-24.89,1.14-37.35,1.8-13.59.71-27.18,1.46-40.78,2.13q-9,.45-18,.82c.13.79.33,1.25.62,1.25h0c32-1.75,64-2.62,95.88-2.85,0-2-.15-3.15-.39-3.15"/><path class="cls-3" d="M38.78,22.05l7.93-20h10V3.43a6.13,6.13,0,0,0-1.83.22,1.94,1.94,0,0,0-1.08.81,3.64,3.64,0,0,0-.5,1.59,22.52,22.52,0,0,0-.12,2.56V21.92a19.48,19.48,0,0,0,.14,2.71,3.36,3.36,0,0,0,.54,1.54,2,2,0,0,0,1.19.72,12.1,12.1,0,0,0,2,.21v1.37H44.2V27.1a10.1,10.1,0,0,0,2-.23,2.12,2.12,0,0,0,1.2-.7A2.84,2.84,0,0,0,48,24.71a18.78,18.78,0,0,0,.14-2.55V6.1H48L38.75,28.81H36.21L26.68,6.1h-.14V21.92a19.48,19.48,0,0,0,.14,2.71,3.25,3.25,0,0,0,.55,1.54,2,2,0,0,0,1.18.72,12.1,12.1,0,0,0,2,.21v1.37H19.89V27.1a10.4,10.4,0,0,0,2.05-.23,2.18,2.18,0,0,0,1.22-.7,2.93,2.93,0,0,0,.57-1.46,19.06,19.06,0,0,0,.13-2.55V8.37A17.81,17.81,0,0,0,23.73,6a3.87,3.87,0,0,0-.52-1.53,2,2,0,0,0-1.08-.79,6.33,6.33,0,0,0-1.87-.22V2.06H30.65l8,20Z"/><path class="cls-3" d="M70.27,16.87V15.43a4.79,4.79,0,0,0-.7-2.89,2.58,2.58,0,0,0-2.18-.91,2,2,0,0,0-1.51.53,5.09,5.09,0,0,0-1,1.76A3.05,3.05,0,0,1,64,15.26a2.31,2.31,0,0,1-1.56.48A1.84,1.84,0,0,1,61,15.16a2.43,2.43,0,0,1-.52-1.65,2.9,2.9,0,0,1,1.8-2.6,12,12,0,0,1,5.44-1q3.84,0,5.49,1.38T74.86,16v7.51c0,2,.39,2.92,1.17,2.92a1.85,1.85,0,0,0,1.2-.45l.52,1a3.31,3.31,0,0,1-1.5,1.35,5.09,5.09,0,0,1-2.28.5,3,3,0,0,1-2.4-1,4,4,0,0,1-.82-2.71h-.17A7,7,0,0,1,68,27.85a7,7,0,0,1-3.6.93,4.87,4.87,0,0,1-3.46-1.22,4.13,4.13,0,0,1-1.3-3.17A3.93,3.93,0,0,1,61,21.56,14,14,0,0,1,65.43,19Zm0,1.82a23.22,23.22,0,0,0-4.34,2.42,3,3,0,0,0-1.46,2.32A2.18,2.18,0,0,0,65,25a1.81,1.81,0,0,0,1.37.59,4,4,0,0,0,1.55-.3,3.84,3.84,0,0,0,1.23-.77A3.52,3.52,0,0,0,70,23.37,3.57,3.57,0,0,0,70.27,22Z"/><path class="cls-3" d="M95,26.27h-.14a8,8,0,0,1-6.14,2.54,9.07,9.07,0,0,1-3.58-.69,8.12,8.12,0,0,1-2.82-1.92,8.56,8.56,0,0,1-1.83-2.93,10.25,10.25,0,0,1-.65-3.75,10.45,10.45,0,0,1,.67-3.81,9.7,9.7,0,0,1,1.81-3,8.06,8.06,0,0,1,2.75-2A8.26,8.26,0,0,1,88.52,10a8.37,8.37,0,0,1,3,.51,5.52,5.52,0,0,1,2.31,1.75H94V9.29c0-1.35,0-2.51,0-3.48a13.67,13.67,0,0,0-.15-1.9,1.53,1.53,0,0,0-1-1.05,8.46,8.46,0,0,0-2.69-.32V1.37L98.74,0V19.62c0,1.71,0,3,.05,4A13.28,13.28,0,0,0,99,25.69a2.31,2.31,0,0,0,.2.72,1,1,0,0,0,.41.43,2,2,0,0,0,.74.2,9.48,9.48,0,0,0,1.18.06v1.33L95,28.81Zm-1.07-7.65a10.31,10.31,0,0,0-.27-2.42,6.7,6.7,0,0,0-.82-2,4.23,4.23,0,0,0-1.58-1.51,4.33,4.33,0,0,0-2.06-.51,3.38,3.38,0,0,0-3.09,1.85,11,11,0,0,0-1.06,5.39,11.45,11.45,0,0,0,1.06,5.48,3.34,3.34,0,0,0,3.06,1.92,4.32,4.32,0,0,0,2.16-.58A4.88,4.88,0,0,0,93,24.69a5.41,5.41,0,0,0,.7-1.87A14.88,14.88,0,0,0,93.93,20Z"/><path class="cls-3" d="M111.49,23.15a14.44,14.44,0,0,0,.12,2.11,2.22,2.22,0,0,0,.5,1.18,1.83,1.83,0,0,0,1.1.54,12.19,12.19,0,0,0,1.92.12v1.37H103.67V27.1a12.12,12.12,0,0,0,1.65-.21,1.51,1.51,0,0,0,.93-.55,2.48,2.48,0,0,0,.39-1.18,19,19,0,0,0,.09-2.08V18.9c0-1.42,0-2.55-.11-3.4a5.25,5.25,0,0,0-.44-1.95,1.74,1.74,0,0,0-1-.91,5.09,5.09,0,0,0-1.66-.22V11.21L110.4,10l.54,3.94h.14A7.76,7.76,0,0,1,113.52,11,5.42,5.42,0,0,1,116.71,10a3.25,3.25,0,0,1,2.12.65,2,2,0,0,1,.83,1.64A2.77,2.77,0,0,1,119,14.1a2.14,2.14,0,0,1-1.73.75,2.05,2.05,0,0,1-.93-.21,3.78,3.78,0,0,1-.73-.46L115,13.7a1.19,1.19,0,0,0-.67-.22,1.59,1.59,0,0,0-1.24.86,7.33,7.33,0,0,0-1,2.29,18.48,18.48,0,0,0-.44,2.32,18.44,18.44,0,0,0-.18,2.55Z"/><path class="cls-3" d="M128.88,22.84A20.75,20.75,0,0,0,129,25a2.83,2.83,0,0,0,.42,1.27,1.55,1.55,0,0,0,.89.6,8.09,8.09,0,0,0,1.58.19v1.37H121.06V27.1a6.14,6.14,0,0,0,1.56-.23,1.81,1.81,0,0,0,.93-.61,2.64,2.64,0,0,0,.44-1.21,13.18,13.18,0,0,0,.12-2V18.86c0-1.32,0-2.42-.06-3.27a13.45,13.45,0,0,0-.18-1.77,1.43,1.43,0,0,0-.77-1.13,5.93,5.93,0,0,0-2.17-.27V11.25l7.95-1.3Zm-5-20.16a2.62,2.62,0,0,1,.77-1.91A2.58,2.58,0,0,1,126.48,0a2.63,2.63,0,0,1,2.68,2.68,2.54,2.54,0,0,1-.77,1.86,2.59,2.59,0,0,1-1.91.78,2.55,2.55,0,0,1-1.87-.78A2.54,2.54,0,0,1,123.84,2.68Z"/><path class="cls-3" d="M149.29,26.27h-.14A8,8,0,0,1,143,28.81a9.07,9.07,0,0,1-3.58-.69,8,8,0,0,1-2.81-1.92,8.73,8.73,0,0,1-1.84-2.93,10.47,10.47,0,0,1-.65-3.75,10.45,10.45,0,0,1,.67-3.81,9.54,9.54,0,0,1,1.82-3,8,8,0,0,1,2.74-2,8.26,8.26,0,0,1,3.45-.72,8.37,8.37,0,0,1,3,.51,5.61,5.61,0,0,1,2.32,1.75h.13V9.29c0-1.35,0-2.51,0-3.48a12.2,12.2,0,0,0-.15-1.9A1.51,1.51,0,0,0,147,2.86a8.46,8.46,0,0,0-2.69-.32V1.37L153,0V19.62c0,1.71,0,3,.05,4a14.6,14.6,0,0,0,.19,2.11,2.31,2.31,0,0,0,.2.72,1,1,0,0,0,.42.43,1.87,1.87,0,0,0,.73.2,9.66,9.66,0,0,0,1.19.06v1.33l-6.52.38Zm-1.06-7.65A10.3,10.3,0,0,0,148,16.2a6.7,6.7,0,0,0-.82-2,4.23,4.23,0,0,0-1.58-1.51,4.33,4.33,0,0,0-2.06-.51,3.36,3.36,0,0,0-3.08,1.85,11,11,0,0,0-1.07,5.39,11.44,11.44,0,0,0,1.07,5.48,3.32,3.32,0,0,0,3.05,1.92,4.32,4.32,0,0,0,2.16-.58,4.71,4.71,0,0,0,1.68-1.58,5.41,5.41,0,0,0,.7-1.87,14.77,14.77,0,0,0,.23-2.86Z"/><path class="cls-3" d="M34,38a17.14,17.14,0,0,0-3.27.3L34.1,38H34"/><path class="cls-4" d="M34.1,38l-3.35.3a15.12,15.12,0,0,0-2.48.71,12.75,12.75,0,0,0-7.36,7.29,15.32,15.32,0,0,0-1,5.69,14.45,14.45,0,0,0,1,5.42,11.58,11.58,0,0,0,2.76,4.14A12.31,12.31,0,0,0,28,64.17a16.31,16.31,0,0,0,5.66.93A14.06,14.06,0,0,0,42.76,62l.48,2.71h1.61V55.46h-1.5A10.32,10.32,0,0,1,40.14,61a8.66,8.66,0,0,1-5.68,1.85A7.57,7.57,0,0,1,28,60q-2.18-2.86-2.18-8.18A18.8,18.8,0,0,1,26.42,47a10.8,10.8,0,0,1,1.65-3.64A7.36,7.36,0,0,1,30.72,41a7.82,7.82,0,0,1,3.6-.81,7.37,7.37,0,0,1,5,1.82,9.1,9.1,0,0,1,2.8,5h1.37l.68-8.68H42.52l-.65,2.13a18.59,18.59,0,0,0-3.94-1.89A12.85,12.85,0,0,0,34.1,38"/><path class="cls-4" d="M58.09,63a3.42,3.42,0,0,1-1.9-.53A4.57,4.57,0,0,1,54.75,61a7.88,7.88,0,0,1-.93-2.33,13.84,13.84,0,0,1-.32-3.09,13.21,13.21,0,0,1,.32-3,7.86,7.86,0,0,1,.93-2.31,4.56,4.56,0,0,1,1.46-1.5,3.54,3.54,0,0,1,1.88-.53,3.69,3.69,0,0,1,1.94.53,4.68,4.68,0,0,1,1.49,1.51,7.9,7.9,0,0,1,1,2.32,11.89,11.89,0,0,1,.35,3,12.47,12.47,0,0,1-.35,3,7.76,7.76,0,0,1-1,2.35A4.58,4.58,0,0,1,60,62.47a3.6,3.6,0,0,1-1.94.53m0-16.77a10.71,10.71,0,0,0-3.84.69,10.17,10.17,0,0,0-3.19,1.92,8.89,8.89,0,0,0-3,6.69,9.4,9.4,0,0,0,.79,3.85,9.24,9.24,0,0,0,2.16,3,9.94,9.94,0,0,0,3.19,2,10.62,10.62,0,0,0,11-2,9.44,9.44,0,0,0,2.2-3,9.2,9.2,0,0,0,.8-3.84,8.65,8.65,0,0,0-.8-3.72,9.12,9.12,0,0,0-2.2-2.94A10.23,10.23,0,0,0,62,46.94a10.8,10.8,0,0,0-3.9-.71"/><path class="cls-4" d="M84,46.23a7.42,7.42,0,0,0-3.39.79,8.14,8.14,0,0,0-2.68,2.23h-.13l-.45-3-6.62,1.31V48.7c.53,0,1,0,1.3,0a3,3,0,0,1,.86.21,1.13,1.13,0,0,1,.52.44,2.88,2.88,0,0,1,.27.74,12.7,12.7,0,0,1,.17,1.7c0,.83.07,1.93.07,3.28V59.4a15.87,15.87,0,0,1-.1,2.06,2.41,2.41,0,0,1-.43,1.17,1.68,1.68,0,0,1-.93.55,10.3,10.3,0,0,1-1.59.2v1.37h10.8V63.38a10.59,10.59,0,0,1-1.63-.2,1.44,1.44,0,0,1-.89-.57,2.84,2.84,0,0,1-.38-1.24c0-.53-.08-1.27-.08-2.21V54.43a9,9,0,0,1,.22-2,7.86,7.86,0,0,1,.53-1.6,5.35,5.35,0,0,1,1.37-1.71,3,3,0,0,1,1.89-.62,4.78,4.78,0,0,1,1.89.33,2.58,2.58,0,0,1,1.21,1.06,5.19,5.19,0,0,1,.67,1.94,17.46,17.46,0,0,1,.21,3V59.4a17.9,17.9,0,0,1-.1,2,2.52,2.52,0,0,1-.42,1.19,1.54,1.54,0,0,1-.9.56,7.28,7.28,0,0,1-1.63.19v1.37H94.31V63.38a10,10,0,0,1-1.58-.2,1.42,1.42,0,0,1-.87-.57,2.84,2.84,0,0,1-.38-1.24,21.39,21.39,0,0,1-.08-2.21V54.33A10.51,10.51,0,0,0,91,50.88a7.9,7.9,0,0,0-1-2,6.16,6.16,0,0,0-2.42-2,8.83,8.83,0,0,0-3.55-.6"/><path class="cls-4" d="M103.23,42.42h-1.75a7.66,7.66,0,0,1-2.08,2.73A9,9,0,0,1,96,46.92v1.54h2.5V60.91A3.79,3.79,0,0,0,99.78,64a5.62,5.62,0,0,0,3.69,1.1c2.38,0,3.89-.82,4.53-2.44l-.72-1a2.2,2.2,0,0,1-2,1.23,1.63,1.63,0,0,1-1.56-.89,7.07,7.07,0,0,1-.46-3V48.46h3.94V46.58h-3.94V42.42"/><path class="cls-4" d="M115.44,52.54a5.94,5.94,0,0,1,1.49-3.1,3.53,3.53,0,0,1,2.62-1.22,2.8,2.8,0,0,1,2.17,1,3.57,3.57,0,0,1,.85,2.47c0,.39-.13.64-.39.74a6.34,6.34,0,0,1-1.77.15h-5m4.25-6.31a10.57,10.57,0,0,0-4,.72,9.41,9.41,0,0,0-3.12,2,8.89,8.89,0,0,0-2,3,10.24,10.24,0,0,0-.72,3.89,9.93,9.93,0,0,0,.68,3.74,8.52,8.52,0,0,0,1.93,2.9,8.63,8.63,0,0,0,3,1.89,10.78,10.78,0,0,0,3.86.67,10,10,0,0,0,7.79-3.54l-1-1.2a10.85,10.85,0,0,1-2.76,1.85,6.74,6.74,0,0,1-2.86.66,4.69,4.69,0,0,1-4-2,8.69,8.69,0,0,1-1.46-5.31,3.24,3.24,0,0,1,.14-1.14h11a2.17,2.17,0,0,0,1-.12c.12-.08.17-.3.17-.67a7.25,7.25,0,0,0-2-5.48,7.78,7.78,0,0,0-5.66-2"/><path class="cls-4" d="M143.08,46.23a7.42,7.42,0,0,0-3.39.79A8.14,8.14,0,0,0,137,49.25h-.14l-.44-3-6.62,1.31V48.7c.52,0,1,0,1.3,0A3,3,0,0,1,132,49a1.06,1.06,0,0,1,.51.44,2.54,2.54,0,0,1,.28.74,12.7,12.7,0,0,1,.17,1.7c0,.83.07,1.93.07,3.28V59.4a15.87,15.87,0,0,1-.1,2.06,2.52,2.52,0,0,1-.43,1.17,1.68,1.68,0,0,1-.93.55,10.3,10.3,0,0,1-1.59.2v1.37h10.8V63.38a10.42,10.42,0,0,1-1.63-.2,1.41,1.41,0,0,1-.89-.57,2.71,2.71,0,0,1-.38-1.24c0-.53-.08-1.27-.08-2.21V54.43a9,9,0,0,1,.22-2,7.86,7.86,0,0,1,.53-1.6,5.35,5.35,0,0,1,1.37-1.71,3,3,0,0,1,1.89-.62,4.78,4.78,0,0,1,1.89.33,2.63,2.63,0,0,1,1.21,1.06,5.37,5.37,0,0,1,.67,1.94,17.46,17.46,0,0,1,.21,3V59.4a15.55,15.55,0,0,1-.11,2,2.42,2.42,0,0,1-.41,1.19,1.54,1.54,0,0,1-.91.56,7.18,7.18,0,0,1-1.62.19v1.37h10.73V63.38a10,10,0,0,1-1.58-.2,1.39,1.39,0,0,1-.87-.57,2.84,2.84,0,0,1-.38-1.24,20.89,20.89,0,0,1-.09-2.21V54.33a10.55,10.55,0,0,0-.44-3.45,7.9,7.9,0,0,0-1-2,6.16,6.16,0,0,0-2.42-2,8.83,8.83,0,0,0-3.55-.6"/><path class="cls-4" d="M162.36,42.42h-1.75a7.66,7.66,0,0,1-2.08,2.73,9,9,0,0,1-3.44,1.77v1.54h2.5V60.91A3.79,3.79,0,0,0,158.91,64a5.62,5.62,0,0,0,3.69,1.1c2.37,0,3.88-.82,4.53-2.44l-.72-1a2.2,2.2,0,0,1-2,1.23,1.63,1.63,0,0,1-1.56-.89,7.07,7.07,0,0,1-.46-3V48.46h3.94V46.58h-3.94V42.42"/><path class="cls-3" d="M19.89,94h1.33a8.15,8.15,0,0,0,2.61,5.13A7.7,7.7,0,0,0,29.08,101a8.59,8.59,0,0,0,2.33-.3,5.71,5.71,0,0,0,1.82-.88,4,4,0,0,0,1.16-1.34,3.54,3.54,0,0,0,.42-1.73,3.6,3.6,0,0,0-.26-1.42,3.12,3.12,0,0,0-1-1.17,10.26,10.26,0,0,0-2-1.15c-.84-.39-1.92-.83-3.24-1.34a15.82,15.82,0,0,1-5.94-3.58,6.8,6.8,0,0,1-1.92-4.82,7,7,0,0,1,.62-3A6.75,6.75,0,0,1,22.85,78a8.19,8.19,0,0,1,2.68-1.49A10.75,10.75,0,0,1,29,76a9.69,9.69,0,0,1,3.3.55,12,12,0,0,1,3,1.65l.62-1.72h.82l.38,7.41H35.8a8.68,8.68,0,0,0-2.57-4.3,6,6,0,0,0-4-1.5,5.38,5.38,0,0,0-3.45,1,3.45,3.45,0,0,0-1.08,4,2.82,2.82,0,0,0,.89,1.08,9.32,9.32,0,0,0,1.79,1c.75.36,1.72.75,2.91,1.19a31.63,31.63,0,0,1,4.1,1.87,12.56,12.56,0,0,1,2.78,2,7.47,7.47,0,0,1,1.6,2.28,6.68,6.68,0,0,1,.51,2.64,6.79,6.79,0,0,1-.75,3.19,7.44,7.44,0,0,1-2.11,2.47,10.4,10.4,0,0,1-3.23,1.61,13.73,13.73,0,0,1-4.13.59,11.33,11.33,0,0,1-3.71-.57,13.51,13.51,0,0,1-3.39-1.83l-.69,2H20.4Z"/><path class="cls-3" d="M59.23,99.91A8.77,8.77,0,0,1,56,102.14a11.13,11.13,0,0,1-4.2.79,10.49,10.49,0,0,1-3.8-.67A8.7,8.7,0,0,1,45,100.39a8.15,8.15,0,0,1-1.91-2.9,10.31,10.31,0,0,1-.67-3.76,10.07,10.07,0,0,1,.72-3.87,8.61,8.61,0,0,1,2-3,9,9,0,0,1,3.12-1.94,11.21,11.21,0,0,1,4-.69,13,13,0,0,1,2.87.31,8.19,8.19,0,0,1,2.26.86A4.86,4.86,0,0,1,59,86.68a2.63,2.63,0,0,1,.55,1.6,2.17,2.17,0,0,1-.57,1.58,2,2,0,0,1-1.52.58A2.42,2.42,0,0,1,56,90a4.57,4.57,0,0,1-1.18-1.34c-.35-.55-.64-1-.88-1.3a4.21,4.21,0,0,0-.67-.74,1.7,1.7,0,0,0-.61-.34,2.78,2.78,0,0,0-.76-.09,3.42,3.42,0,0,0-3.09,1.85,10.26,10.26,0,0,0-1.09,5.18,9.64,9.64,0,0,0,1.32,5.49,4.32,4.32,0,0,0,3.79,1.92,8,8,0,0,0,2.81-.53,10,10,0,0,0,2.67-1.53Z"/><path class="cls-3" d="M69.17,97.13a21,21,0,0,0,.09,2.21,2.64,2.64,0,0,0,.38,1.25,1.39,1.39,0,0,0,.89.59,10.42,10.42,0,0,0,1.63.2v1.37H61.35v-1.37a10.9,10.9,0,0,0,1.65-.2,1.55,1.55,0,0,0,.92-.55,2.42,2.42,0,0,0,.4-1.19,19.06,19.06,0,0,0,.08-2.07V83.27c0-1.37,0-2.45-.05-3.24a10.73,10.73,0,0,0-.19-1.8,2.27,2.27,0,0,0-.24-.7,1,1,0,0,0-.42-.41,2,2,0,0,0-.79-.21c-.33,0-.75,0-1.26,0V75.59l7.65-1.3V86.94h.14a6.93,6.93,0,0,1,2.38-2.06,7.18,7.18,0,0,1,3.18-.65A6.65,6.65,0,0,1,80,86.29a7.93,7.93,0,0,1,1.41,2.49,9.09,9.09,0,0,1,.51,3v5.32c0,1,0,1.71.07,2.25a2.72,2.72,0,0,0,.36,1.23,1.39,1.39,0,0,0,.87.57,10.11,10.11,0,0,0,1.62.2v1.37H74.11v-1.37a7.21,7.21,0,0,0,1.63-.19,1.69,1.69,0,0,0,.93-.56,2.42,2.42,0,0,0,.41-1.19c0-.51.08-1.2.08-2.07V93.15A11.89,11.89,0,0,0,76.37,88a2.79,2.79,0,0,0-2.71-1.51A3.92,3.92,0,0,0,70.41,88,5.69,5.69,0,0,0,69.5,90a9.61,9.61,0,0,0-.33,2.61Z"/><path class="cls-3" d="M96.88,84.23a10.84,10.84,0,0,1,3.9.71A10.34,10.34,0,0,1,104,86.87a9,9,0,0,1,2.19,2.94,8.52,8.52,0,0,1,.81,3.72,9.05,9.05,0,0,1-.81,3.84,9.16,9.16,0,0,1-2.19,3,10.5,10.5,0,0,1-3.22,2,10.63,10.63,0,0,1-3.9.72,10.51,10.51,0,0,1-3.84-.71,9.94,9.94,0,0,1-3.19-2,9.31,9.31,0,0,1-2.16-3,9.48,9.48,0,0,1-.79-3.86,8.92,8.92,0,0,1,.79-3.74,9.08,9.08,0,0,1,2.16-3A10.17,10.17,0,0,1,93,84.92,10.71,10.71,0,0,1,96.88,84.23Zm0,2a3.54,3.54,0,0,0-1.88.53,4.56,4.56,0,0,0-1.46,1.5,7.86,7.86,0,0,0-.93,2.31,13.21,13.21,0,0,0-.32,3,13.84,13.84,0,0,0,.32,3.09A7.88,7.88,0,0,0,93.54,99,4.57,4.57,0,0,0,95,100.47a3.45,3.45,0,0,0,1.9.53,3.6,3.6,0,0,0,1.94-.53A4.49,4.49,0,0,0,100.31,99a7.51,7.51,0,0,0,1-2.35,12.47,12.47,0,0,0,.35-3,11.89,11.89,0,0,0-.35-3,7.64,7.64,0,0,0-1-2.32,4.68,4.68,0,0,0-1.49-1.51A3.69,3.69,0,0,0,96.88,86.22Z"/><path class="cls-3" d="M119.86,84.23a10.84,10.84,0,0,1,3.9.71A10.23,10.23,0,0,1,127,86.87a9.12,9.12,0,0,1,2.2,2.94,8.65,8.65,0,0,1,.8,3.72,9.2,9.2,0,0,1-.8,3.84,9.33,9.33,0,0,1-2.2,3,10.38,10.38,0,0,1-3.22,2,10.63,10.63,0,0,1-3.9.72,10.51,10.51,0,0,1-3.84-.71,9.94,9.94,0,0,1-3.19-2,9.31,9.31,0,0,1-2.16-3,9.48,9.48,0,0,1-.79-3.86,8.92,8.92,0,0,1,.79-3.74,9.08,9.08,0,0,1,2.16-3A10.17,10.17,0,0,1,116,84.92,10.71,10.71,0,0,1,119.86,84.23Zm0,2a3.54,3.54,0,0,0-1.88.53,4.47,4.47,0,0,0-1.46,1.5,7.86,7.86,0,0,0-.93,2.31,13.21,13.21,0,0,0-.32,3,13.84,13.84,0,0,0,.32,3.09,7.88,7.88,0,0,0,.93,2.33,4.57,4.57,0,0,0,1.44,1.49,3.42,3.42,0,0,0,1.9.53,3.6,3.6,0,0,0,1.94-.53A4.49,4.49,0,0,0,123.29,99a8,8,0,0,0,1-2.35,12.47,12.47,0,0,0,.35-3,11.89,11.89,0,0,0-.35-3,8.17,8.17,0,0,0-1-2.32,4.68,4.68,0,0,0-1.49-1.51A3.69,3.69,0,0,0,119.86,86.22Z"/><path class="cls-3" d="M140.06,97.13a18,18,0,0,0,.11,2.19,2.68,2.68,0,0,0,.41,1.27,1.46,1.46,0,0,0,.89.6,6.79,6.79,0,0,0,1.58.19v1.37H132.24v-1.37a6.2,6.2,0,0,0,1.56-.22,1.83,1.83,0,0,0,.93-.62,2.6,2.6,0,0,0,.45-1.2,13.18,13.18,0,0,0,.12-2V83.2c0-1.32,0-2.41-.07-3.27a16.25,16.25,0,0,0-.17-1.77,1.47,1.47,0,0,0-.78-1.13,5.93,5.93,0,0,0-2.17-.27V75.59l7.95-1.3Z"/><path class="cls-3" d="M26,127a5.59,5.59,0,0,1,1.59-4,5.22,5.22,0,0,1,3.94-1.66A5.46,5.46,0,0,1,35.63,123a5.54,5.54,0,0,1,1.62,4,5.22,5.22,0,0,1-1.62,3.88,5.63,5.63,0,0,1-4.07,1.58,5.38,5.38,0,0,1-3.94-1.58A5.27,5.27,0,0,1,26,127Z"/><path class="cls-3" d="M46,127a5.59,5.59,0,0,1,1.59-4,5.2,5.2,0,0,1,3.94-1.66A5.42,5.42,0,0,1,55.55,123a5.51,5.51,0,0,1,1.63,4,5.2,5.2,0,0,1-1.63,3.88,5.59,5.59,0,0,1-4.06,1.58,5.36,5.36,0,0,1-3.94-1.58A5.27,5.27,0,0,1,46,127Z"/><path class="cls-3" d="M65.88,127a5.59,5.59,0,0,1,1.59-4,5.24,5.24,0,0,1,4-1.66A5.44,5.44,0,0,1,75.48,123a5.54,5.54,0,0,1,1.62,4,5.22,5.22,0,0,1-1.62,3.88,5.61,5.61,0,0,1-4.06,1.58,5.4,5.4,0,0,1-4-1.58A5.27,5.27,0,0,1,65.88,127Z"/></g></g></svg>